<svg width="305" height="298" viewBox="0 0 305 298" fill="none" xmlns="http://www.w3.org/2000/svg">
<mask id="path-1-inside-1_64_1251" fill="white">
<path fill-rule="evenodd" clip-rule="evenodd" d="M156 1.47411C79.8548 1.47411 17.1836 59.1632 9.30845 133.219C12.577 134.028 15 136.981 15 140.5C15 144.31 12.1581 147.457 8.47811 147.937C8.47561 148.291 8.47436 148.645 8.47436 149C8.47436 230.476 74.5238 296.525 156 296.525C237.476 296.525 303.526 230.476 303.526 149C303.526 120.665 295.537 94.1956 281.69 71.7214C280.494 72.5287 279.052 73 277.5 73C273.358 73 270 69.6421 270 65.5C270 62.965 271.258 60.7238 273.183 59.3662C246.221 24.1705 203.761 1.47411 156 1.47411ZM273.996 58.8672C246.864 23.401 204.103 0.525391 156 0.525391C79.3883 0.525391 16.3291 58.5502 8.37233 133.05C8.08615 133.017 7.79507 133 7.5 133C3.35786 133 0 136.358 0 140.5C0 144.642 3.35786 148 7.5 148L7.52894 148C7.52674 148.333 7.52564 148.666 7.52564 149C7.52564 231 73.9999 297.474 156 297.474C238 297.474 304.474 231 304.474 149C304.474 120.447 296.414 93.7758 282.445 71.1386C284.011 69.7641 285 67.7475 285 65.5C285 61.3579 281.642 58 277.5 58C276.234 58 275.042 58.3135 273.996 58.8672Z"/>
</mask>
<path fill-rule="evenodd" clip-rule="evenodd" d="M156 1.47411C79.8548 1.47411 17.1836 59.1632 9.30845 133.219C12.577 134.028 15 136.981 15 140.5C15 144.31 12.1581 147.457 8.47811 147.937C8.47561 148.291 8.47436 148.645 8.47436 149C8.47436 230.476 74.5238 296.525 156 296.525C237.476 296.525 303.526 230.476 303.526 149C303.526 120.665 295.537 94.1956 281.69 71.7214C280.494 72.5287 279.052 73 277.5 73C273.358 73 270 69.6421 270 65.5C270 62.965 271.258 60.7238 273.183 59.3662C246.221 24.1705 203.761 1.47411 156 1.47411ZM273.996 58.8672C246.864 23.401 204.103 0.525391 156 0.525391C79.3883 0.525391 16.3291 58.5502 8.37233 133.05C8.08615 133.017 7.79507 133 7.5 133C3.35786 133 0 136.358 0 140.5C0 144.642 3.35786 148 7.5 148L7.52894 148C7.52674 148.333 7.52564 148.666 7.52564 149C7.52564 231 73.9999 297.474 156 297.474C238 297.474 304.474 231 304.474 149C304.474 120.447 296.414 93.7758 282.445 71.1386C284.011 69.7641 285 67.7475 285 65.5C285 61.3579 281.642 58 277.5 58C276.234 58 275.042 58.3135 273.996 58.8672Z" fill="#F7FDFB"/>
<path d="M9.30845 133.219L8.31406 133.113L8.22187 133.98L9.06813 134.19L9.30845 133.219ZM8.47811 147.937L8.34896 146.945L7.48429 147.058L7.47813 147.929L8.47811 147.937ZM281.69 71.7214L282.541 71.1968L281.995 70.3094L281.131 70.8924L281.69 71.7214ZM273.183 59.3662L273.759 60.1835L274.61 59.5839L273.977 58.7581L273.183 59.3662ZM273.996 58.8672L273.202 59.4748L273.716 60.1469L274.464 59.751L273.996 58.8672ZM8.37233 133.05L8.25729 134.043L9.25952 134.159L9.36667 133.156L8.37233 133.05ZM7.5 148V149H7.50211L7.5 148ZM7.52894 148L8.52892 148.006L8.53557 146.998L7.52683 147L7.52894 148ZM282.445 71.1386L281.786 70.3871L281.151 70.9446L281.594 71.6638L282.445 71.1386ZM10.3028 133.325C18.1245 59.772 80.3716 2.47411 156 2.47411V0.474109C79.338 0.474109 16.2427 58.5544 8.31406 133.113L10.3028 133.325ZM16 140.5C16 136.511 13.253 133.166 9.54877 132.249L9.06813 134.19C11.9009 134.891 14 137.452 14 140.5H16ZM8.60726 148.928C12.7789 148.385 16 144.819 16 140.5H14C14 143.802 11.5373 146.53 8.34896 146.945L8.60726 148.928ZM9.47436 149C9.47436 148.647 9.4756 148.295 9.47808 147.944L7.47813 147.929C7.47562 148.286 7.47436 148.643 7.47436 149H9.47436ZM156 295.525C75.0761 295.525 9.47436 229.924 9.47436 149H7.47436C7.47436 231.028 73.9715 297.525 156 297.525V295.525ZM302.526 149C302.526 229.924 236.924 295.525 156 295.525V297.525C238.028 297.525 304.526 231.028 304.526 149H302.526ZM280.839 72.2459C294.592 94.567 302.526 120.855 302.526 149H304.526C304.526 120.474 296.483 93.8242 282.541 71.1968L280.839 72.2459ZM281.131 70.8924C280.094 71.5918 278.846 72 277.5 72V74C279.257 74 280.893 73.4656 282.249 72.5503L281.131 70.8924ZM277.5 72C273.91 72 271 69.0899 271 65.5H269C269 70.1944 272.806 74 277.5 74V72ZM271 65.5C271 63.3038 272.088 61.3617 273.759 60.1835L272.607 58.5489C270.427 60.0858 269 62.6262 269 65.5H271ZM156 2.47411C203.437 2.47411 245.608 25.015 272.389 59.9743L273.977 58.7581C246.834 23.326 204.085 0.474109 156 0.474109V2.47411ZM156 1.52539C203.779 1.52539 246.25 24.2453 273.202 59.4748L274.79 58.2596C247.477 22.5567 204.428 -0.474609 156 -0.474609V1.52539ZM9.36667 133.156C17.2698 59.1593 79.905 1.52539 156 1.52539V-0.474609C78.8717 -0.474609 15.3885 57.9412 7.37798 132.944L9.36667 133.156ZM7.5 134C7.75652 134 8.0092 134.015 8.25729 134.043L8.48737 132.057C8.16311 132.019 7.83361 132 7.5 132V134ZM1 140.5C1 136.91 3.91015 134 7.5 134V132C2.80558 132 -1 135.805 -1 140.5H1ZM7.5 147C3.91015 147 1 144.09 1 140.5H-1C-1 145.194 2.80558 149 7.5 149V147ZM7.52683 147L7.49789 147L7.50211 149L7.53105 149L7.52683 147ZM8.52564 149C8.52564 148.668 8.52673 148.337 8.52892 148.006L6.52896 147.993C6.52675 148.328 6.52564 148.664 6.52564 149H8.52564ZM156 296.474C74.5522 296.474 8.52564 230.448 8.52564 149H6.52564C6.52564 231.552 73.4476 298.474 156 298.474V296.474ZM303.474 149C303.474 230.448 237.448 296.474 156 296.474V298.474C238.552 298.474 305.474 231.552 305.474 149H303.474ZM281.594 71.6638C295.469 94.1476 303.474 120.637 303.474 149H305.474C305.474 120.256 297.36 93.4039 283.296 70.6135L281.594 71.6638ZM284 65.5C284 67.4477 283.145 69.1943 281.786 70.3871L283.105 71.8902C284.878 70.3338 286 68.0473 286 65.5H284ZM277.5 59C281.09 59 284 61.9101 284 65.5H286C286 60.8056 282.194 57 277.5 57V59ZM274.464 59.751C275.369 59.2718 276.401 59 277.5 59V57C276.067 57 274.715 57.3553 273.528 57.9834L274.464 59.751Z" fill="#01C198" mask="url(#path-1-inside-1_64_1251)"/>
</svg>
