<svg width="22" height="22" viewBox="0 0 22 22" fill="none" xmlns="http://www.w3.org/2000/svg">
<g clip-path="url(#clip0_289_41760)">
<path d="M10.9988 21.1394C16.7758 21.1394 21.459 16.4562 21.459 10.6792C21.459 4.90219 16.7758 0.218994 10.9988 0.218994C5.22177 0.218994 0.538574 4.90219 0.538574 10.6792C0.538574 16.4562 5.22177 21.1394 10.9988 21.1394Z" fill="white"/>
<path d="M14.399 3.42957H12.0818C10.7067 3.42957 9.17723 4.00791 9.17723 6.00118C9.18394 6.69571 9.17723 7.36087 9.17723 8.10946H7.58643V10.6409H9.22646V17.9285H12.2401V10.5928H14.2292L14.4092 8.10235H12.1882C12.1882 8.10235 12.1931 6.99449 12.1882 6.67277C12.1882 5.88507 13.0078 5.93018 13.0571 5.93018C13.4471 5.93018 14.2055 5.93132 14.4002 5.93018V3.42957H14.399Z" fill="#151515"/>
</g>
<defs>
<clipPath id="clip0_289_41760">
<rect width="20.9204" height="20.9204" fill="white" transform="translate(0.538574 0.219482)"/>
</clipPath>
</defs>
</svg>
