<svg width="22" height="22" viewBox="0 0 22 22" fill="none" xmlns="http://www.w3.org/2000/svg">
<path d="M11.134 0.219482C5.35698 0.219482 0.673828 4.90263 0.673828 10.6797C0.673828 16.4567 5.35698 21.1399 11.134 21.1399C16.9111 21.1399 21.5943 16.4567 21.5943 10.6797C21.5942 4.90263 16.911 0.219482 11.134 0.219482ZM8.34323 15.7367H6.04658V8.31691H8.34323V15.7367ZM7.18396 7.34523C6.4339 7.34523 5.82585 6.73222 5.82585 5.97615C5.82585 5.22 6.43398 4.60703 7.18396 4.60703C7.93393 4.60703 8.54199 5.22 8.54199 5.97615C8.54203 6.73226 7.93398 7.34523 7.18396 7.34523ZM16.9499 15.7367H14.6644V11.8419C14.6644 10.7737 14.2586 10.1774 13.4139 10.1774C12.4947 10.1774 12.0144 10.7984 12.0144 11.8419V15.7367H9.81166V8.31691H12.0144V9.31623C12.0144 9.31623 12.677 8.09058 14.2503 8.09058C15.8236 8.09058 16.9499 9.05125 16.9499 11.0386L16.9499 15.7367Z" fill="white"/>
</svg>
