<svg width="137" height="36" viewBox="0 0 137 36" fill="none" xmlns="http://www.w3.org/2000/svg">
<path d="M0.760002 17.8263C0.760002 14.1372 0.760002 10.4482 0.760002 6.75945C0.760002 5.61343 0.930044 4.49179 1.45493 3.45742C2.2044 1.98158 3.42614 1.09094 5.01941 0.698239C5.68546 0.53333 6.36692 0.485204 7.05222 0.485846C12.8131 0.491407 18.5743 0.492477 24.3356 0.489054C24.8554 0.489054 24.8554 0.489055 24.8554 1.0056C24.8554 2.87671 24.8252 4.74782 24.865 6.61829C24.9003 8.29561 23.8916 9.07653 22.4048 9.1362C21.8915 9.15673 21.3749 9.14133 20.8597 9.14133H10.3594C9.89995 9.14133 9.89867 9.14133 9.89867 9.5905C9.89867 15.0139 9.89867 20.4373 9.89867 25.8607C9.89867 26.2803 9.90573 26.288 10.3183 26.288H26.7823C27.1943 26.288 27.2007 26.2803 27.2007 25.8594C27.2007 22.0231 27.2007 18.1867 27.2007 14.3504C27.2007 14.0456 27.2254 13.7413 27.2745 13.4405C27.4561 12.2984 28.1356 11.6612 29.3464 11.486C29.6583 11.4398 29.9731 11.4166 30.2884 11.4167C32.1281 11.4212 33.9677 11.425 35.8068 11.4128C36.1199 11.4128 36.2226 11.5001 36.2226 11.8222C36.2136 17.519 36.2296 23.2157 36.2065 28.9118C36.2001 30.4069 35.629 31.7416 34.637 32.844C33.4088 34.2139 31.8406 34.9114 29.9791 34.9442C23.7665 35.052 17.5538 34.9936 11.3411 34.9801C10.018 34.9769 8.69297 34.941 7.36921 34.948C5.46601 34.9589 3.89264 34.2287 2.51112 32.9588C1.26435 31.8096 0.750377 30.3967 0.756152 28.736C0.768343 25.0977 0.760002 21.4633 0.760002 17.8263Z" fill="#38B990"/>
<path d="M36.2229 5.66582C35.9585 4.2195 35.3476 2.96439 34.1727 2.01279C33.1916 1.21712 32.0969 0.713408 30.845 0.572882C30.3959 0.52219 29.9403 0.527965 29.4905 0.470215H27.3486C27.3486 0.974568 27.3486 1.47871 27.3486 1.98263C27.3486 3.63173 27.3428 5.28146 27.3537 6.93055C27.3601 7.95017 27.8401 8.72081 28.6056 8.96272C29.0357 9.10251 29.4848 9.17481 29.9371 9.17704C32.0809 9.16934 34.2241 9.17383 36.3679 9.17383V7.47084C36.3005 6.86959 36.332 6.25744 36.2229 5.66582Z" fill="#38B990"/>
<path d="M58.5417 11.6025V12.9441H55.0971V24.239H53.4473V12.9441H49.9845V11.6025H58.5417ZM67.2262 24.239L64.2167 19.072H62.2224V24.239H60.5726V11.6025H64.6518C65.6066 11.6025 66.4104 11.7657 67.063 12.092C67.7278 12.4184 68.2234 12.8595 68.5497 13.4155C68.876 13.9715 69.0392 14.606 69.0392 15.3191C69.0392 16.1894 68.7854 16.9569 68.2777 17.6216C67.7822 18.2864 67.0328 18.7275 66.0296 18.9451L69.2024 24.239H67.2262ZM62.2224 17.7485H64.6518C65.5462 17.7485 66.217 17.531 66.6642 17.0959C67.1114 16.6487 67.335 16.0564 67.335 15.3191C67.335 14.5698 67.1114 13.9896 66.6642 13.5787C66.2291 13.1677 65.5583 12.9623 64.6518 12.9623H62.2224V17.7485ZM79.0722 21.4289H73.5607L72.5455 24.239H70.805L75.3737 11.675H77.2774L81.8279 24.239H80.0875L79.0722 21.4289ZM78.6008 20.0873L76.3165 13.7056L74.0321 20.0873H78.6008ZM87.7533 11.6025C89.1312 11.6025 90.3217 11.8624 91.3249 12.3821C92.3401 12.8897 93.1137 13.621 93.6455 14.5758C94.1894 15.5307 94.4613 16.6547 94.4613 17.948C94.4613 19.2412 94.1894 20.3653 93.6455 21.3201C93.1137 22.2629 92.3401 22.9881 91.3249 23.4957C90.3217 23.9912 89.1312 24.239 87.7533 24.239H83.8191V11.6025H87.7533ZM87.7533 22.8793C89.385 22.8793 90.6299 22.4502 91.488 21.5921C92.3462 20.7218 92.7752 19.5071 92.7752 17.948C92.7752 16.3767 92.3401 15.1499 91.4699 14.2676C90.6118 13.3853 89.3729 12.9441 87.7533 12.9441H85.4689V22.8793H87.7533ZM98.2873 12.9441V17.1684H102.892V18.5281H98.2873V22.8793H103.436V24.239H96.6375V11.5844H103.436V12.9441H98.2873ZM112.296 11.6025V20.9394C112.296 21.9788 111.976 22.8128 111.335 23.4413C110.695 24.0577 109.849 24.3659 108.797 24.3659C107.733 24.3659 106.881 24.0517 106.241 23.4232C105.6 22.7826 105.28 21.9124 105.28 20.8125H106.93C106.942 21.4289 107.099 21.9305 107.401 22.3173C107.715 22.704 108.181 22.8974 108.797 22.8974C109.413 22.8974 109.873 22.7161 110.175 22.3535C110.477 21.9788 110.628 21.5075 110.628 20.9394V11.6025H112.296ZM117.196 11.6025V24.239H115.546V11.6025H117.196ZM129.943 24.239H128.293L121.658 14.177V24.239H120.008V11.5844H121.658L128.293 21.6283V11.5844H129.943V24.239ZM134.405 11.6025V24.239H132.755V11.6025H134.405Z" fill="#23AC80"/>
</svg>
