<svg width="42" height="41" viewBox="0 0 42 41" fill="none" xmlns="http://www.w3.org/2000/svg">
<path d="M0.00459727 20.4723C0.00459727 16.1214 0.00459727 11.7708 0.00459727 7.42039C0.00459727 6.06881 0.20514 4.74598 0.824175 3.52607C1.70808 1.78551 3.14896 0.735122 5.02801 0.271981C5.81353 0.0774925 6.61722 0.0207351 7.42545 0.0214918C14.2197 0.0280505 21.0142 0.0293117 27.8089 0.0252756C28.4219 0.0252756 28.4219 0.0252757 28.4219 0.634472C28.4219 2.8412 28.3864 5.04793 28.4333 7.2539C28.4749 9.23209 27.2853 10.1531 25.5318 10.2235C24.9264 10.2477 24.3172 10.2295 23.7095 10.2295H11.3258C10.784 10.2295 10.7825 10.2295 10.7825 10.7592C10.7825 17.1554 10.7825 23.5516 10.7825 29.9478C10.7825 30.4427 10.7908 30.4518 11.2774 30.4518H30.6945C31.1803 30.4518 31.1879 30.4427 31.1879 29.9463C31.1879 25.4218 31.1879 20.8974 31.1879 16.3729C31.188 16.0135 31.2171 15.6546 31.2749 15.2998C31.4891 13.9528 32.2905 13.2013 33.7185 12.9947C34.0863 12.9402 34.4576 12.9129 34.8295 12.913C36.9991 12.9183 39.1688 12.9228 41.3377 12.9085C41.707 12.9085 41.828 13.0114 41.828 13.3913C41.8174 20.1098 41.8364 26.8284 41.8091 33.5462C41.8016 35.3095 41.128 36.8836 39.9581 38.1837C38.5096 39.7994 36.6601 40.622 34.4647 40.6606C27.1377 40.7877 19.8107 40.7188 12.4837 40.703C10.9232 40.6992 9.3605 40.6568 7.79929 40.6651C5.55472 40.678 3.69913 39.8168 2.06981 38.3191C0.599416 36.9638 -0.00675418 35.2974 5.67145e-05 33.3389C0.0144353 29.048 0.00459727 24.7617 0.00459727 20.4723Z" fill="#38B990"/>
</svg>
