<svg width="19" height="16" viewBox="0 0 19 16" fill="none" xmlns="http://www.w3.org/2000/svg">
<path d="M5.78178 15.1484C12.7197 15.1484 16.5138 9.40214 16.5138 4.41913C16.5138 4.25594 16.5105 4.09349 16.5031 3.93172C17.2414 3.39767 17.8785 2.73644 18.3846 1.97902C17.7088 2.27941 16.9815 2.48159 16.2185 2.57274C16.9973 2.10591 17.5951 1.36736 17.8772 0.48702C17.1368 0.926143 16.3268 1.2357 15.4821 1.40235C14.7938 0.66937 13.8138 0.210938 12.7288 0.210938C10.6458 0.210938 8.95664 1.8997 8.95664 3.98135C8.95664 4.2773 8.98978 4.56507 9.0545 4.84119C5.91959 4.68349 3.13977 3.18294 1.27938 0.901275C0.9443 1.47676 0.768057 2.1308 0.768642 2.79662C0.768642 4.10492 1.43452 5.25985 2.44717 5.93555C1.84818 5.91726 1.26233 5.75551 0.738898 5.4639C0.738337 5.47973 0.738337 5.49516 0.738337 5.51207C0.738337 7.33829 2.03849 8.86308 3.7644 9.20858C3.44025 9.29684 3.10577 9.34146 2.7698 9.34127C2.52718 9.34127 2.29072 9.3174 2.06091 9.2733C2.54111 10.7716 3.93356 11.8619 5.58448 11.8924C4.29348 12.904 2.66723 13.5066 0.899726 13.5066C0.599051 13.5068 0.298622 13.4894 0 13.4543C1.66934 14.524 3.65133 15.1484 5.78178 15.1484Z" fill="white"/>
</svg>
