<svg width="26" height="18" viewBox="0 0 26 18" fill="none" xmlns="http://www.w3.org/2000/svg">
<path d="M13.5094 17.2086L8.437 17.1158C6.79465 17.0835 5.14822 17.148 3.53808 16.8131C1.08869 16.3127 0.915164 13.8593 0.73359 11.8013C0.483399 8.90796 0.580255 5.96215 1.0524 3.093C1.31894 1.48311 2.36788 0.522472 3.99004 0.417937C9.466 0.0385629 14.9784 0.0835227 20.4422 0.260514C21.0193 0.27674 21.6003 0.365421 22.1693 0.466365C24.978 0.958696 25.0465 3.73904 25.2285 6.07956C25.4101 8.44424 25.3334 10.8211 24.9864 13.1696C24.708 15.1142 24.1753 16.7449 21.9271 16.9023C19.1104 17.1082 16.3583 17.2739 13.5336 17.2211C13.5337 17.2086 13.5175 17.2086 13.5094 17.2086ZM10.5273 12.2855C12.65 11.0668 14.7322 9.86835 16.8427 8.65777C14.716 7.43902 12.6379 6.24058 10.5273 5.03V12.2855Z" fill="white"/>
</svg>
